<svg width="367" height="260" viewBox="0 0 367 260" fill="none" xmlns="http://www.w3.org/2000/svg">
<path fill-rule="evenodd" clip-rule="evenodd" d="M159.712 32.1247C118.548 43.1546 90.1105 78.0517 85.3463 118.004C83.8646 130.429 84.6741 143.353 88.1234 156.226C90.3231 164.436 93.4695 172.139 97.4134 179.249C108.289 177.764 119.632 175.733 130.946 173.356L134.715 172.499L150.386 145.333C154.24 138.652 162.783 136.363 169.462 140.222C176.134 144.077 178.42 152.609 174.57 159.284L162.816 179.659L183.006 191.325C189.678 195.181 191.964 203.713 188.114 210.387C184.259 217.069 175.716 219.358 169.037 215.499L141.516 199.596L136.915 200.641L136.805 200.664C130.356 202.02 123.79 203.293 117.207 204.433C141.888 227.217 177.345 237.238 212.171 227.907C249.988 217.774 277.038 187.508 284.896 151.717C266.81 160.086 247.769 167.585 230.452 173.814L236.125 177.092C242.796 180.948 245.083 189.48 241.232 196.154C237.378 202.836 228.835 205.125 222.156 201.266L184.22 179.345C180.631 177.271 179.401 172.681 181.472 169.09L203.365 131.138C207.22 124.456 215.763 122.167 222.441 126.026C229.113 129.881 231.358 138.485 227.508 145.16C247.009 137.952 268.032 129.293 286.713 119.817C286.166 114.493 285.19 109.142 283.76 103.805C279.608 88.3115 272.105 74.6557 262.248 63.3755C237.599 35.1665 198.257 21.7964 159.712 32.1247ZM315.011 136.283C312.395 190.919 275.03 239.979 219.4 254.884C167.486 268.795 114.476 248.993 83.5826 208.895C74.106 209.702 64.9752 210.028 56.5236 209.711C44.6657 209.266 33.0627 207.529 23.4681 203.336C13.5861 199.017 4.70327 191.498 1.47334 179.444C-3.27294 161.73 7.0564 146.358 18.3729 135.4C28.8296 125.274 43.1769 115.825 58.7272 107.325C67.255 59.5329 102.476 18.5463 152.483 5.14689C199.121 -7.34973 246.621 7.36896 278.177 39.5133C295.821 37.6862 313.041 37.3313 327.306 39.876C342.827 42.645 360.148 49.991 365.087 68.4259C369.667 85.5164 360.303 100.368 349.612 111.084C340.577 120.142 328.383 128.59 315.011 136.283ZM298.227 66.0811C307.492 65.777 315.681 66.1688 322.417 67.3706C335.133 69.6391 337.596 73.6562 338.13 75.6492C338.734 77.9056 338.397 82.7877 329.856 91.3499C325.439 95.7772 319.619 100.339 312.668 104.945C312.114 102.157 311.464 99.3678 310.718 96.5821C307.797 85.6815 303.562 75.4708 298.227 66.0811ZM57.1788 140.642C49.3771 145.641 42.7923 150.625 37.7857 155.473C28.2515 164.705 27.8246 169.957 28.4311 172.22C28.8139 173.649 29.9066 175.678 34.6314 177.743C39.6436 179.933 47.2787 181.417 57.559 181.803C60.7607 181.923 64.1145 181.934 67.596 181.846C65.033 175.97 62.8752 169.83 61.1656 163.449C59.1299 155.852 57.8144 148.225 57.1788 140.642Z" fill="url(#paint0_linear)"/>
<defs>
<linearGradient id="paint0_linear" x1="-32.0114" y1="54.5349" x2="402.028" y2="205.922" gradientUnits="userSpaceOnUse">
<stop stop-color="#FF6447"/>
<stop offset="1" stop-color="#FA8032"/>
</linearGradient>
</defs>
</svg>
